<svg width="31" height="23" viewBox="0 0 31 23" fill="none" xmlns="http://www.w3.org/2000/svg">
<path d="M28.3334 0.5H2.66671C2.18048 0.5 1.71416 0.693154 1.37034 1.03697C1.02653 1.38079 0.833374 1.8471 0.833374 2.33333V20.6667C0.833374 21.1529 1.02653 21.6192 1.37034 21.963C1.71416 22.3068 2.18048 22.5 2.66671 22.5H28.3334C28.8196 22.5 29.2859 22.3068 29.6297 21.963C29.9736 21.6192 30.1667 21.1529 30.1667 20.6667V2.33333C30.1667 1.8471 29.9736 1.38079 29.6297 1.03697C29.2859 0.693154 28.8196 0.5 28.3334 0.5ZM26.9217 20.6667H4.18837L10.605 14.03L9.28504 12.7558L2.66671 19.6033V3.72667L14.0609 15.0658C14.4044 15.4073 14.869 15.599 15.3534 15.599C15.8377 15.599 16.3024 15.4073 16.6459 15.0658L28.3334 3.4425V19.4842L21.5867 12.7375L20.2942 14.03L26.9217 20.6667ZM3.86754 2.33333H26.8484L15.3534 13.7642L3.86754 2.33333Z" fill="#FF3D4E"/>
</svg>
